<svg viewBox="0 0 1440 960" xmlns="http://www.w3.org/2000/svg" xmlns:xlink="http://www.w3.org/1999/xlink" width="1440.000000" height="960.000000" fill="none">
	<rect id="Background" width="1440.000000" height="960.000000" x="0.000000" y="0.000000" />
	<path id="" d="M508.742 786.438C508.742 785.332 508.972 784.352 509.431 783.499C509.89 782.646 510.516 781.984 511.311 781.512C512.105 781.036 512.982 780.799 513.942 780.799C514.808 780.799 515.563 780.97 516.208 781.312C516.856 781.65 517.373 782.073 517.761 782.581L517.761 780.979L520.061 780.979L520.061 792L517.761 792L517.761 790.359C517.373 790.88 516.846 791.315 516.179 791.663C515.511 792.008 514.751 792.181 513.898 792.181C512.954 792.181 512.089 791.938 511.301 791.453C510.513 790.965 509.89 790.284 509.431 789.412C508.972 788.536 508.742 787.545 508.742 786.438ZM517.761 786.482C517.761 785.721 517.603 785.06 517.287 784.5C516.975 783.94 516.564 783.514 516.057 783.221C515.552 782.928 515.007 782.781 514.421 782.781C513.835 782.781 513.288 782.924 512.78 783.211C512.272 783.497 511.862 783.917 511.55 784.471C511.237 785.024 511.081 785.68 511.081 786.438C511.081 787.2 511.237 787.867 511.55 788.44C511.862 789.013 512.276 789.45 512.79 789.749C513.304 790.049 513.848 790.198 514.421 790.198C515.007 790.198 515.552 790.052 516.057 789.759C516.564 789.466 516.975 789.036 517.287 788.47C517.603 787.903 517.761 787.241 517.761 786.482ZM525.339 782.601C525.727 782.093 526.254 781.666 526.921 781.321C527.589 780.973 528.342 780.799 529.182 780.799C530.139 780.799 531.015 781.036 531.809 781.512C532.603 781.984 533.227 782.646 533.679 783.499C534.132 784.352 534.358 785.332 534.358 786.438C534.358 787.545 534.132 788.536 533.679 789.412C533.227 790.284 532.603 790.965 531.809 791.453C531.015 791.938 530.139 792.181 529.182 792.181C528.342 792.181 527.595 792.011 526.941 791.673C526.287 791.331 525.753 790.906 525.339 790.398L525.339 797.239L523.059 797.239L523.059 780.979L525.339 780.979L525.339 782.601ZM532.039 786.438C532.039 785.68 531.882 785.024 531.57 784.471C531.257 783.917 530.844 783.497 530.33 783.211C529.815 782.924 529.265 782.781 528.679 782.781C528.106 782.781 527.563 782.928 527.048 783.221C526.537 783.514 526.124 783.94 525.808 784.5C525.496 785.06 525.339 785.721 525.339 786.482C525.339 787.241 525.496 787.903 525.808 788.47C526.124 789.036 526.537 789.466 527.048 789.759C527.563 790.052 528.106 790.198 528.679 790.198C529.265 790.198 529.815 790.049 530.33 789.749C530.844 789.45 531.257 789.013 531.57 788.44C531.882 787.867 532.039 787.2 532.039 786.438ZM538.899 782.601C539.287 782.093 539.814 781.666 540.481 781.321C541.149 780.973 541.902 780.799 542.742 780.799C543.699 780.799 544.575 781.036 545.369 781.512C546.163 781.984 546.787 782.646 547.239 783.499C547.692 784.352 547.918 785.332 547.918 786.438C547.918 787.545 547.692 788.536 547.239 789.412C546.787 790.284 546.163 790.965 545.369 791.453C544.575 791.938 543.699 792.181 542.742 792.181C541.902 792.181 541.155 792.011 540.501 791.673C539.847 791.331 539.313 790.906 538.899 790.398L538.899 797.239L536.619 797.239L536.619 780.979L538.899 780.979L538.899 782.601ZM545.599 786.438C545.599 785.68 545.442 785.024 545.13 784.471C544.817 783.917 544.404 783.497 543.89 783.211C543.375 782.924 542.825 782.781 542.239 782.781C541.666 782.781 541.123 782.928 540.608 783.221C540.097 783.514 539.684 783.94 539.368 784.5C539.056 785.06 538.899 785.721 538.899 786.482C538.899 787.241 539.056 787.903 539.368 788.47C539.684 789.036 540.097 789.466 540.608 789.759C541.123 790.052 541.666 790.198 542.239 790.198C542.825 790.198 543.375 790.049 543.89 789.749C544.404 789.45 544.817 789.013 545.13 788.44C545.442 787.867 545.599 787.2 545.599 786.438ZM552.459 777.2L552.459 792L550.179 792L550.179 777.2L552.459 777.2ZM565.562 786.219C565.562 786.632 565.534 787.007 565.479 787.342L557.061 787.342C557.126 788.221 557.451 788.927 558.037 789.461C558.626 789.995 559.347 790.262 560.2 790.262C561.427 790.262 562.293 789.747 562.798 788.719L565.259 788.719C564.927 789.734 564.323 790.566 563.447 791.214C562.575 791.858 561.493 792.181 560.2 792.181C559.146 792.181 558.202 791.945 557.368 791.473C556.535 790.997 555.882 790.33 555.41 789.471C554.938 788.611 554.702 787.615 554.702 786.482C554.702 785.346 554.932 784.349 555.391 783.489C555.85 782.63 556.496 781.967 557.329 781.502C558.162 781.033 559.12 780.799 560.2 780.799C561.239 780.799 562.165 781.027 562.979 781.482C563.792 781.935 564.425 782.571 564.878 783.392C565.334 784.212 565.562 785.154 565.562 786.219ZM563.179 785.501C563.166 784.661 562.866 783.987 562.28 783.479C561.694 782.972 560.967 782.718 560.098 782.718C559.313 782.718 558.641 782.968 558.081 783.47C557.521 783.971 557.188 784.648 557.08 785.501L563.179 785.501Z" fill="rgb(76,175,80)" fill-rule="nonzero" />
	<path id="" d="M373.16 588.84L373.16 594.938C373.16 595.352 373.256 595.65 373.448 595.832C373.644 596.011 373.974 596.101 374.439 596.101L375.841 596.101L375.841 598L374.039 598C373.014 598 372.228 597.761 371.681 597.282C371.134 596.8 370.86 596.019 370.86 594.938L370.86 588.84L369.562 588.84L369.562 586.979L370.86 586.979L370.86 584.24L373.16 584.24L373.16 586.979L375.841 586.979L375.841 588.84L373.16 588.84ZM380.219 588.581C380.555 588.021 380.999 587.585 381.552 587.272C382.106 586.957 382.762 586.799 383.52 586.799L383.52 589.162L382.939 589.162C382.047 589.162 381.37 589.388 380.908 589.841C380.449 590.293 380.219 591.079 380.219 592.199L380.219 598L377.939 598L377.939 586.979L380.219 586.979L380.219 588.581ZM384.862 592.438C384.862 591.332 385.092 590.352 385.551 589.499C386.01 588.646 386.636 587.984 387.431 587.512C388.225 587.036 389.102 586.799 390.062 586.799C390.928 586.799 391.683 586.97 392.328 587.312C392.976 587.65 393.493 588.073 393.881 588.581L393.881 586.979L396.181 586.979L396.181 598L393.881 598L393.881 596.359C393.493 596.88 392.966 597.315 392.299 597.663C391.631 598.008 390.871 598.181 390.018 598.181C389.074 598.181 388.209 597.938 387.421 597.453C386.633 596.965 386.01 596.284 385.551 595.412C385.092 594.536 384.862 593.545 384.862 592.438ZM393.881 592.482C393.881 591.721 393.723 591.06 393.407 590.5C393.095 589.94 392.684 589.514 392.177 589.221C391.672 588.928 391.127 588.781 390.541 588.781C389.955 588.781 389.408 588.924 388.9 589.211C388.392 589.497 387.982 589.917 387.67 590.471C387.357 591.024 387.201 591.68 387.201 592.438C387.201 593.2 387.357 593.867 387.67 594.44C387.982 595.013 388.396 595.45 388.91 595.749C389.424 596.049 389.968 596.198 390.541 596.198C391.127 596.198 391.672 596.052 392.177 595.759C392.684 595.466 393.095 595.036 393.407 594.47C393.723 593.903 393.881 593.241 393.881 592.482ZM400.341 585.52C399.928 585.52 399.581 585.38 399.301 585.1C399.021 584.82 398.881 584.473 398.881 584.06C398.881 583.646 399.021 583.299 399.301 583.02C399.581 582.74 399.928 582.6 400.341 582.6C400.742 582.6 401.082 582.74 401.362 583.02C401.642 583.299 401.782 583.646 401.782 584.06C401.782 584.473 401.642 584.82 401.362 585.1C401.082 585.38 400.742 585.52 400.341 585.52ZM401.459 586.979L401.459 598L399.179 598L399.179 586.979L401.459 586.979ZM410.021 586.799C410.886 586.799 411.663 586.979 412.35 587.341C413.036 587.699 413.574 588.233 413.961 588.942C414.348 589.649 414.542 590.502 414.542 591.501L414.542 598L412.281 598L412.281 591.838C412.281 590.852 412.034 590.096 411.539 589.572C411.048 589.045 410.374 588.781 409.518 588.781C408.665 588.781 407.988 589.045 407.486 589.572C406.988 590.096 406.739 590.852 406.739 591.838L406.739 598L404.459 598L404.459 586.979L406.739 586.979L406.739 588.239C407.114 587.787 407.591 587.434 408.17 587.18C408.749 586.926 409.366 586.799 410.021 586.799Z" fill="rgb(76,175,80)" fill-rule="nonzero" />
	<path id="" d="M869.16 767.84L869.16 773.938C869.16 774.352 869.256 774.65 869.448 774.832C869.644 775.011 869.974 775.101 870.439 775.101L871.841 775.101L871.841 777L870.039 777C869.014 777 868.228 776.761 867.681 776.282C867.134 775.8 866.86 775.019 866.86 773.938L866.86 767.84L865.562 767.84L865.562 765.979L866.86 765.979L866.86 763.24L869.16 763.24L869.16 765.979L871.841 765.979L871.841 767.84L869.16 767.84ZM884.042 771.219C884.042 771.632 884.014 772.007 883.959 772.342L875.541 772.342C875.606 773.221 875.931 773.927 876.517 774.461C877.106 774.995 877.827 775.262 878.68 775.262C879.907 775.262 880.773 774.747 881.278 773.719L883.739 773.719C883.407 774.734 882.803 775.566 881.927 776.214C881.055 776.858 879.973 777.181 878.68 777.181C877.626 777.181 876.682 776.945 875.848 776.473C875.015 775.997 874.362 775.33 873.89 774.471C873.418 773.611 873.182 772.615 873.182 771.482C873.182 770.346 873.412 769.349 873.871 768.489C874.33 767.63 874.976 766.967 875.809 766.502C876.642 766.033 877.599 765.799 878.68 765.799C879.719 765.799 880.645 766.027 881.459 766.482C882.272 766.935 882.906 767.571 883.358 768.392C883.814 769.212 884.042 770.154 884.042 771.219ZM881.659 770.501C881.646 769.661 881.346 768.987 880.76 768.479C880.174 767.972 879.447 767.718 878.578 767.718C877.793 767.718 877.121 767.968 876.561 768.47C876.001 768.971 875.668 769.648 875.56 770.501L881.659 770.501ZM885.522 771.438C885.522 770.332 885.752 769.352 886.211 768.499C886.67 767.646 887.296 766.984 888.091 766.512C888.885 766.036 889.762 765.799 890.722 765.799C891.588 765.799 892.344 765.97 892.988 766.312C893.636 766.65 894.153 767.073 894.541 767.581L894.541 765.979L896.841 765.979L896.841 777L894.541 777L894.541 775.359C894.153 775.88 893.626 776.315 892.959 776.663C892.291 777.008 891.531 777.181 890.678 777.181C889.734 777.181 888.869 776.938 888.081 776.453C887.293 775.965 886.67 775.284 886.211 774.412C885.752 773.536 885.522 772.545 885.522 771.438ZM894.541 771.482C894.541 770.721 894.383 770.06 894.067 769.5C893.755 768.94 893.344 768.514 892.837 768.221C892.332 767.928 891.787 767.781 891.201 767.781C890.615 767.781 890.068 767.924 889.56 768.211C889.052 768.497 888.642 768.917 888.33 769.471C888.017 770.024 887.861 770.68 887.861 771.438C887.861 772.2 888.017 772.867 888.33 773.44C888.642 774.013 889.056 774.45 889.57 774.749C890.084 775.049 890.628 775.198 891.201 775.198C891.787 775.198 892.332 775.052 892.837 774.759C893.344 774.466 893.755 774.036 894.067 773.47C894.383 772.903 894.541 772.241 894.541 771.482ZM899.082 771.482C899.082 770.346 899.312 769.349 899.771 768.489C900.23 767.63 900.866 766.967 901.68 766.502C902.494 766.033 903.426 765.799 904.478 765.799C905.812 765.799 906.916 766.116 907.788 766.751C908.664 767.383 909.255 768.286 909.561 769.461L907.1 769.461C906.901 768.914 906.581 768.488 906.138 768.182C905.698 767.872 905.145 767.718 904.478 767.718C903.547 767.718 902.805 768.048 902.251 768.709C901.698 769.37 901.421 770.294 901.421 771.482C901.421 772.667 901.698 773.593 902.251 774.261C902.805 774.928 903.547 775.262 904.478 775.262C905.799 775.262 906.673 774.681 907.1 773.519L909.561 773.519C909.242 774.638 908.641 775.529 907.759 776.189C906.88 776.85 905.786 777.181 904.478 777.181C903.426 777.181 902.494 776.945 901.68 776.473C900.866 775.997 900.23 775.33 899.771 774.471C899.312 773.611 899.082 772.615 899.082 771.482ZM917.542 765.799C918.382 765.799 919.131 765.979 919.788 766.341C920.449 766.699 920.97 767.233 921.351 767.942C921.732 768.649 921.922 769.502 921.922 770.501L921.922 777L919.661 777L919.661 770.838C919.661 769.852 919.414 769.096 918.919 768.572C918.428 768.045 917.754 767.781 916.898 767.781C916.045 767.781 915.368 768.045 914.866 768.572C914.368 769.096 914.119 769.852 914.119 770.838L914.119 777L911.839 777L911.839 762.2L914.119 762.2L914.119 767.259C914.507 766.793 914.997 766.434 915.589 766.18C916.181 765.926 916.833 765.799 917.542 765.799ZM934.922 771.219C934.922 771.632 934.894 772.007 934.839 772.342L926.421 772.342C926.486 773.221 926.811 773.927 927.397 774.461C927.986 774.995 928.707 775.262 929.56 775.262C930.787 775.262 931.653 774.747 932.158 773.719L934.619 773.719C934.287 774.734 933.683 775.566 932.807 776.214C931.935 776.858 930.853 777.181 929.56 777.181C928.506 777.181 927.562 776.945 926.728 776.473C925.895 775.997 925.242 775.33 924.77 774.471C924.298 773.611 924.062 772.615 924.062 771.482C924.062 770.346 924.292 769.349 924.751 768.489C925.21 767.63 925.856 766.967 926.689 766.502C927.522 766.033 928.479 765.799 929.56 765.799C930.599 765.799 931.525 766.027 932.339 766.482C933.152 766.935 933.786 767.571 934.238 768.392C934.694 769.212 934.922 770.154 934.922 771.219ZM932.539 770.501C932.526 769.661 932.226 768.987 931.64 768.479C931.054 767.972 930.327 767.718 929.458 767.718C928.673 767.718 928.001 767.968 927.441 768.47C926.881 768.971 926.548 769.648 926.44 770.501L932.539 770.501ZM939.439 767.581C939.775 767.021 940.219 766.585 940.772 766.272C941.326 765.957 941.982 765.799 942.74 765.799L942.74 768.162L942.159 768.162C941.267 768.162 940.59 768.388 940.128 768.841C939.669 769.293 939.439 770.079 939.439 771.199L939.439 777L937.159 777L937.159 765.979L939.439 765.979L939.439 767.581Z" fill="rgb(26,26,26)" fill-opacity="0.400000006" fill-rule="nonzero" />
	<path id="" d="M395.779 696.62C396.167 696.086 396.697 695.65 397.371 695.312C398.045 694.97 398.795 694.799 399.622 694.799C400.595 694.799 401.474 695.033 402.259 695.502C403.047 695.967 403.667 696.63 404.119 697.489C404.572 698.349 404.798 699.332 404.798 700.438C404.798 701.545 404.572 702.536 404.119 703.412C403.667 704.284 403.043 704.965 402.249 705.453C401.455 705.938 400.579 706.181 399.622 706.181C398.766 706.181 398.007 706.015 397.347 705.683C396.689 705.347 396.167 704.919 395.779 704.398L395.779 706L393.499 706L393.499 691.2L395.779 691.2L395.779 696.62ZM402.479 700.438C402.479 699.68 402.322 699.024 402.01 698.471C401.697 697.917 401.284 697.497 400.77 697.211C400.255 696.924 399.705 696.781 399.119 696.781C398.546 696.781 398.003 696.928 397.488 697.221C396.977 697.514 396.564 697.94 396.248 698.5C395.936 699.06 395.779 699.721 395.779 700.482C395.779 701.241 395.936 701.903 396.248 702.47C396.564 703.036 396.977 703.466 397.488 703.759C398.003 704.052 398.546 704.198 399.119 704.198C399.705 704.198 400.255 704.049 400.77 703.749C401.284 703.45 401.697 703.013 402.01 702.44C402.322 701.867 402.479 701.2 402.479 700.438ZM406.302 700.438C406.302 699.332 406.532 698.352 406.991 697.499C407.45 696.646 408.076 695.984 408.871 695.512C409.665 695.036 410.542 694.799 411.502 694.799C412.368 694.799 413.123 694.97 413.768 695.312C414.416 695.65 414.933 696.073 415.321 696.581L415.321 694.979L417.621 694.979L417.621 706L415.321 706L415.321 704.359C414.933 704.88 414.406 705.315 413.739 705.663C413.071 706.008 412.311 706.181 411.458 706.181C410.514 706.181 409.649 705.938 408.861 705.453C408.073 704.965 407.45 704.284 406.991 703.412C406.532 702.536 406.302 701.545 406.302 700.438ZM415.321 700.482C415.321 699.721 415.163 699.06 414.847 698.5C414.535 697.94 414.124 697.514 413.617 697.221C413.112 696.928 412.567 696.781 411.981 696.781C411.395 696.781 410.848 696.924 410.34 697.211C409.832 697.497 409.422 697.917 409.11 698.471C408.797 699.024 408.641 699.68 408.641 700.438C408.641 701.2 408.797 701.867 409.11 702.44C409.422 703.013 409.836 703.45 410.35 703.749C410.864 704.049 411.408 704.198 411.981 704.198C412.567 704.198 413.112 704.052 413.617 703.759C414.124 703.466 414.535 703.036 414.847 702.47C415.163 701.903 415.321 701.241 415.321 700.482ZM424.618 706.181C423.752 706.181 422.976 706.024 422.289 705.712C421.602 705.396 421.058 704.97 420.658 704.433C420.261 703.892 420.048 703.288 420.018 702.621L422.382 702.621C422.421 703.087 422.644 703.477 423.051 703.793C423.458 704.105 423.967 704.262 424.579 704.262C425.22 704.262 425.717 704.138 426.068 703.891C426.423 703.643 426.6 703.326 426.6 702.938C426.6 702.525 426.404 702.219 426.01 702.021C425.616 701.819 424.992 701.599 424.14 701.361C423.313 701.133 422.639 700.914 422.118 700.702C421.6 700.487 421.151 700.16 420.77 699.721C420.39 699.281 420.199 698.702 420.199 697.982C420.199 697.393 420.372 696.856 420.717 696.371C421.065 695.883 421.561 695.499 422.206 695.219C422.854 694.939 423.599 694.799 424.442 694.799C425.696 694.799 426.705 695.116 427.47 695.751C428.238 696.383 428.648 697.245 428.7 698.339L426.42 698.339C426.381 697.847 426.181 697.455 425.819 697.162C425.461 696.866 424.974 696.718 424.359 696.718C423.76 696.718 423.3 696.832 422.977 697.06C422.658 697.287 422.499 697.587 422.499 697.958C422.499 698.254 422.605 698.502 422.816 698.7C423.031 698.899 423.292 699.055 423.598 699.169C423.907 699.283 424.361 699.426 424.96 699.599C425.761 699.813 426.417 700.032 426.928 700.253C427.442 700.471 427.886 700.793 428.261 701.22C428.635 701.646 428.829 702.213 428.842 702.919C428.842 703.547 428.668 704.109 428.319 704.604C427.974 705.095 427.484 705.481 426.849 705.761C426.218 706.041 425.474 706.181 424.618 706.181ZM435.659 700.502L440.742 706L437.661 706L433.579 701.259L433.579 706L431.299 706L431.299 691.2L433.579 691.2L433.579 699.799L437.578 694.979L440.742 694.979L435.659 700.502Z" fill="rgb(76,175,80)" fill-rule="nonzero" />
	<path id="" d="M452.482 700.219C452.482 700.632 452.454 701.007 452.399 701.342L443.981 701.342C444.046 702.221 444.371 702.927 444.957 703.461C445.546 703.995 446.267 704.262 447.12 704.262C448.347 704.262 449.213 703.747 449.718 702.719L452.179 702.719C451.847 703.734 451.243 704.566 450.367 705.214C449.495 705.858 448.413 706.181 447.12 706.181C446.066 706.181 445.122 705.945 444.288 705.473C443.455 704.997 442.802 704.33 442.33 703.471C441.858 702.611 441.622 701.615 441.622 700.482C441.622 699.346 441.852 698.349 442.311 697.489C442.77 696.63 443.416 695.967 444.249 695.502C445.082 695.033 446.039 694.799 447.12 694.799C448.159 694.799 449.085 695.027 449.899 695.482C450.712 695.935 451.345 696.571 451.798 697.392C452.254 698.212 452.482 699.154 452.482 700.219ZM450.099 699.501C450.086 698.661 449.786 697.987 449.2 697.479C448.614 696.972 447.887 696.718 447.018 696.718C446.233 696.718 445.561 696.968 445.001 697.47C444.441 697.971 444.108 698.648 444 699.501L450.099 699.501ZM457.38 696.84L457.38 702.938C457.38 703.352 457.476 703.65 457.668 703.832C457.864 704.011 458.194 704.101 458.659 704.101L460.061 704.101L460.061 706L458.259 706C457.234 706 456.448 705.761 455.901 705.282C455.354 704.8 455.08 704.019 455.08 702.938L455.08 696.84L453.782 696.84L453.782 694.979L455.08 694.979L455.08 692.24L457.38 692.24L457.38 694.979L460.061 694.979L460.061 696.84L457.38 696.84ZM464.439 696.62C464.827 696.086 465.357 695.65 466.031 695.312C466.705 694.97 467.455 694.799 468.282 694.799C469.255 694.799 470.134 695.033 470.919 695.502C471.707 695.967 472.327 696.63 472.779 697.489C473.232 698.349 473.458 699.332 473.458 700.438C473.458 701.545 473.232 702.536 472.779 703.412C472.327 704.284 471.703 704.965 470.909 705.453C470.115 705.938 469.239 706.181 468.282 706.181C467.426 706.181 466.667 706.015 466.007 705.683C465.349 705.347 464.827 704.919 464.439 704.398L464.439 706L462.159 706L462.159 691.2L464.439 691.2L464.439 696.62ZM471.139 700.438C471.139 699.68 470.982 699.024 470.67 698.471C470.357 697.917 469.944 697.497 469.43 697.211C468.915 696.924 468.365 696.781 467.779 696.781C467.206 696.781 466.663 696.928 466.148 697.221C465.637 697.514 465.224 697.94 464.908 698.5C464.596 699.06 464.439 699.721 464.439 700.482C464.439 701.241 464.596 701.903 464.908 702.47C465.224 703.036 465.637 703.466 466.148 703.759C466.663 704.052 467.206 704.198 467.779 704.198C468.365 704.198 468.915 704.049 469.43 703.749C469.944 703.45 470.357 703.013 470.67 702.44C470.982 701.867 471.139 701.2 471.139 700.438ZM474.962 700.438C474.962 699.332 475.192 698.352 475.651 697.499C476.11 696.646 476.736 695.984 477.531 695.512C478.325 695.036 479.202 694.799 480.162 694.799C481.028 694.799 481.783 694.97 482.428 695.312C483.076 695.65 483.593 696.073 483.981 696.581L483.981 694.979L486.281 694.979L486.281 706L483.981 706L483.981 704.359C483.593 704.88 483.066 705.315 482.399 705.663C481.731 706.008 480.971 706.181 480.118 706.181C479.174 706.181 478.309 705.938 477.521 705.453C476.733 704.965 476.11 704.284 475.651 703.412C475.192 702.536 474.962 701.545 474.962 700.438ZM483.981 700.482C483.981 699.721 483.823 699.06 483.507 698.5C483.195 697.94 482.784 697.514 482.277 697.221C481.772 696.928 481.227 696.781 480.641 696.781C480.055 696.781 479.508 696.924 479 697.211C478.492 697.497 478.082 697.917 477.77 698.471C477.457 699.024 477.301 699.68 477.301 700.438C477.301 701.2 477.457 701.867 477.77 702.44C478.082 703.013 478.496 703.45 479.01 703.749C479.524 704.049 480.068 704.198 480.641 704.198C481.227 704.198 481.772 704.052 482.277 703.759C482.784 703.466 483.195 703.036 483.507 702.47C483.823 701.903 483.981 701.241 483.981 700.482ZM491.559 691.2L491.559 706L489.279 706L489.279 691.2L491.559 691.2ZM496.839 691.2L496.839 706L494.559 706L494.559 691.2L496.839 691.2Z" fill="rgb(76,175,80)" fill-rule="nonzero" />
	<path id="" d="M452.482 700.219C452.482 700.632 452.454 701.007 452.399 701.342L443.981 701.342C444.046 702.221 444.371 702.927 444.957 703.461C445.546 703.995 446.267 704.262 447.12 704.262C448.347 704.262 449.213 703.747 449.718 702.719L452.179 702.719C451.847 703.734 451.243 704.566 450.367 705.214C449.495 705.858 448.413 706.181 447.12 706.181C446.066 706.181 445.122 705.945 444.288 705.473C443.455 704.997 442.802 704.33 442.33 703.471C441.858 702.611 441.622 701.615 441.622 700.482C441.622 699.346 441.852 698.349 442.311 697.489C442.77 696.63 443.416 695.967 444.249 695.502C445.082 695.033 446.039 694.799 447.12 694.799C448.159 694.799 449.085 695.027 449.899 695.482C450.712 695.935 451.345 696.571 451.798 697.392C452.254 698.212 452.482 699.154 452.482 700.219ZM450.099 699.501C450.086 698.661 449.786 697.987 449.2 697.479C448.614 696.972 447.887 696.718 447.018 696.718C446.233 696.718 445.561 696.968 445.001 697.47C444.441 697.971 444.108 698.648 444 699.501L450.099 699.501ZM457.38 696.84L457.38 702.938C457.38 703.352 457.476 703.65 457.668 703.832C457.864 704.011 458.194 704.101 458.659 704.101L460.061 704.101L460.061 706L458.259 706C457.234 706 456.448 705.761 455.901 705.282C455.354 704.8 455.08 704.019 455.08 702.938L455.08 696.84L453.782 696.84L453.782 694.979L455.08 694.979L455.08 692.24L457.38 692.24L457.38 694.979L460.061 694.979L460.061 696.84L457.38 696.84ZM464.439 696.62C464.827 696.086 465.357 695.65 466.031 695.312C466.705 694.97 467.455 694.799 468.282 694.799C469.255 694.799 470.134 695.033 470.919 695.502C471.707 695.967 472.327 696.63 472.779 697.489C473.232 698.349 473.458 699.332 473.458 700.438C473.458 701.545 473.232 702.536 472.779 703.412C472.327 704.284 471.703 704.965 470.909 705.453C470.115 705.938 469.239 706.181 468.282 706.181C467.426 706.181 466.667 706.015 466.007 705.683C465.349 705.347 464.827 704.919 464.439 704.398L464.439 706L462.159 706L462.159 691.2L464.439 691.2L464.439 696.62ZM471.139 700.438C471.139 699.68 470.982 699.024 470.67 698.471C470.357 697.917 469.944 697.497 469.43 697.211C468.915 696.924 468.365 696.781 467.779 696.781C467.206 696.781 466.663 696.928 466.148 697.221C465.637 697.514 465.224 697.94 464.908 698.5C464.596 699.06 464.439 699.721 464.439 700.482C464.439 701.241 464.596 701.903 464.908 702.47C465.224 703.036 465.637 703.466 466.148 703.759C466.663 704.052 467.206 704.198 467.779 704.198C468.365 704.198 468.915 704.049 469.43 703.749C469.944 703.45 470.357 703.013 470.67 702.44C470.982 701.867 471.139 701.2 471.139 700.438ZM474.962 700.438C474.962 699.332 475.192 698.352 475.651 697.499C476.11 696.646 476.736 695.984 477.531 695.512C478.325 695.036 479.202 694.799 480.162 694.799C481.028 694.799 481.783 694.97 482.428 695.312C483.076 695.65 483.593 696.073 483.981 696.581L483.981 694.979L486.281 694.979L486.281 706L483.981 706L483.981 704.359C483.593 704.88 483.066 705.315 482.399 705.663C481.731 706.008 480.971 706.181 480.118 706.181C479.174 706.181 478.309 705.938 477.521 705.453C476.733 704.965 476.11 704.284 475.651 703.412C475.192 702.536 474.962 701.545 474.962 700.438ZM483.981 700.482C483.981 699.721 483.823 699.06 483.507 698.5C483.195 697.94 482.784 697.514 482.277 697.221C481.772 696.928 481.227 696.781 480.641 696.781C480.055 696.781 479.508 696.924 479 697.211C478.492 697.497 478.082 697.917 477.77 698.471C477.457 699.024 477.301 699.68 477.301 700.438C477.301 701.2 477.457 701.867 477.77 702.44C478.082 703.013 478.496 703.45 479.01 703.749C479.524 704.049 480.068 704.198 480.641 704.198C481.227 704.198 481.772 704.052 482.277 703.759C482.784 703.466 483.195 703.036 483.507 702.47C483.823 701.903 483.981 701.241 483.981 700.482ZM491.559 691.2L491.559 706L489.279 706L489.279 691.2L491.559 691.2ZM496.839 691.2L496.839 706L494.559 706L494.559 691.2L496.839 691.2Z" fill="rgb(26,26,26)" fill-opacity="0.400000006" fill-rule="nonzero" />
	<path id="" d="M1004.74 577.482C1004.74 576.346 1004.97 575.349 1005.43 574.489C1005.89 573.63 1006.53 572.967 1007.34 572.502C1008.15 572.033 1009.09 571.799 1010.14 571.799C1011.47 571.799 1012.58 572.116 1013.45 572.751C1014.32 573.383 1014.91 574.286 1015.22 575.461L1012.76 575.461C1012.56 574.914 1012.24 574.488 1011.8 574.182C1011.36 573.872 1010.8 573.718 1010.14 573.718C1009.21 573.718 1008.46 574.048 1007.91 574.709C1007.36 575.37 1007.08 576.294 1007.08 577.482C1007.08 578.667 1007.36 579.593 1007.91 580.261C1008.46 580.928 1009.21 581.262 1010.14 581.262C1011.46 581.262 1012.33 580.681 1012.76 579.519L1015.22 579.519C1014.9 580.638 1014.3 581.529 1013.42 582.189C1012.54 582.85 1011.45 583.181 1010.14 583.181C1009.09 583.181 1008.15 582.945 1007.34 582.473C1006.53 581.997 1005.89 581.33 1005.43 580.471C1004.97 579.611 1004.74 578.615 1004.74 577.482ZM1022.28 583.181C1021.24 583.181 1020.3 582.945 1019.46 582.473C1018.62 581.997 1017.96 581.33 1017.48 580.471C1017 579.611 1016.76 578.615 1016.76 577.482C1016.76 576.359 1017.01 575.365 1017.5 574.499C1017.99 573.633 1018.67 572.967 1019.52 572.502C1020.37 572.033 1021.33 571.799 1022.38 571.799C1023.43 571.799 1024.39 572.033 1025.24 572.502C1026.09 572.967 1026.77 573.633 1027.26 574.499C1027.75 575.365 1028 576.359 1028 577.482C1028 578.602 1027.75 579.595 1027.24 580.461C1026.73 581.327 1026.04 581.997 1025.17 582.473C1024.3 582.945 1023.33 583.181 1022.28 583.181ZM1022.28 581.198C1022.87 581.198 1023.42 581.058 1023.93 580.778C1024.44 580.498 1024.86 580.078 1025.18 579.519C1025.5 578.959 1025.66 578.28 1025.66 577.482C1025.66 576.682 1025.51 576.005 1025.2 575.451C1024.89 574.898 1024.49 574.481 1023.98 574.201C1023.47 573.921 1022.93 573.781 1022.34 573.781C1021.75 573.781 1021.21 573.921 1020.71 574.201C1020.21 574.481 1019.81 574.898 1019.52 575.451C1019.23 576.005 1019.08 576.682 1019.08 577.482C1019.08 578.667 1019.38 579.584 1019.99 580.231C1020.6 580.876 1021.36 581.198 1022.28 581.198ZM1043.6 571.799C1044.46 571.799 1045.24 571.979 1045.93 572.341C1046.61 572.699 1047.16 573.233 1047.55 573.942C1047.94 574.649 1048.14 575.502 1048.14 576.501L1048.14 583L1045.88 583L1045.88 576.838C1045.88 575.852 1045.63 575.096 1045.14 574.572C1044.65 574.045 1043.97 573.781 1043.12 573.781C1042.27 573.781 1041.59 574.045 1041.09 574.572C1040.59 575.096 1040.34 575.852 1040.34 576.838L1040.34 583L1038.08 583L1038.08 576.838C1038.08 575.852 1037.83 575.096 1037.34 574.572C1036.85 574.045 1036.17 573.781 1035.32 573.781C1034.46 573.781 1033.79 574.045 1033.29 574.572C1032.79 575.096 1032.54 575.852 1032.54 576.838L1032.54 583L1030.26 583L1030.26 571.979L1032.54 571.979L1032.54 573.239C1032.91 572.787 1033.39 572.434 1033.96 572.18C1034.53 571.926 1035.15 571.799 1035.8 571.799C1036.68 571.799 1037.47 571.986 1038.16 572.36C1038.85 572.735 1039.39 573.275 1039.76 573.981C1040.09 573.314 1040.61 572.784 1041.32 572.39C1042.03 571.996 1042.79 571.799 1043.6 571.799ZM1053.32 573.601C1053.71 573.093 1054.23 572.666 1054.9 572.321C1055.57 571.973 1056.32 571.799 1057.16 571.799C1058.12 571.799 1058.99 572.036 1059.79 572.512C1060.58 572.984 1061.21 573.646 1061.66 574.499C1062.11 575.352 1062.34 576.332 1062.34 577.438C1062.34 578.545 1062.11 579.536 1061.66 580.412C1061.21 581.284 1060.58 581.965 1059.79 582.453C1058.99 582.938 1058.12 583.181 1057.16 583.181C1056.32 583.181 1055.58 583.011 1054.92 582.673C1054.27 582.331 1053.73 581.906 1053.32 581.398L1053.32 588.239L1051.04 588.239L1051.04 571.979L1053.32 571.979L1053.32 573.601ZM1060.02 577.438C1060.02 576.68 1059.86 576.024 1059.55 575.471C1059.24 574.917 1058.82 574.497 1058.31 574.211C1057.8 573.924 1057.25 573.781 1056.66 573.781C1056.09 573.781 1055.54 573.928 1055.03 574.221C1054.52 574.514 1054.1 574.94 1053.79 575.5C1053.48 576.06 1053.32 576.721 1053.32 577.482C1053.32 578.241 1053.48 578.903 1053.79 579.47C1054.1 580.036 1054.52 580.466 1055.03 580.759C1055.54 581.052 1056.09 581.198 1056.66 581.198C1057.25 581.198 1057.8 581.049 1058.31 580.749C1058.82 580.45 1059.24 580.013 1059.55 579.44C1059.86 578.867 1060.02 578.2 1060.02 577.438Z" fill="rgb(76,175,80)" fill-rule="nonzero" />
	<path id="" d="M1063.84 577.438C1063.84 576.332 1064.07 575.352 1064.53 574.499C1064.99 573.646 1065.62 572.984 1066.41 572.512C1067.2 572.036 1068.08 571.799 1069.04 571.799C1069.91 571.799 1070.66 571.97 1071.31 572.312C1071.96 572.65 1072.47 573.073 1072.86 573.581L1072.86 571.979L1075.16 571.979L1075.16 583L1072.86 583L1072.86 581.359C1072.47 581.88 1071.95 582.315 1071.28 582.663C1070.61 583.008 1069.85 583.181 1069 583.181C1068.05 583.181 1067.19 582.938 1066.4 582.453C1065.61 581.965 1064.99 581.284 1064.53 580.412C1064.07 579.536 1063.84 578.545 1063.84 577.438ZM1072.86 577.482C1072.86 576.721 1072.7 576.06 1072.39 575.5C1072.07 574.94 1071.66 574.514 1071.16 574.221C1070.65 573.928 1070.11 573.781 1069.52 573.781C1068.93 573.781 1068.39 573.924 1067.88 574.211C1067.37 574.497 1066.96 574.917 1066.65 575.471C1066.34 576.024 1066.18 576.68 1066.18 577.438C1066.18 578.2 1066.34 578.867 1066.65 579.44C1066.96 580.013 1067.38 580.45 1067.89 580.749C1068.4 581.049 1068.95 581.198 1069.52 581.198C1070.11 581.198 1070.65 581.052 1071.16 580.759C1071.66 580.466 1072.07 580.036 1072.39 579.47C1072.7 578.903 1072.86 578.241 1072.86 577.482Z" fill="rgb(76,175,80)" fill-rule="nonzero" />
	<path id="" d="M1063.84 577.438C1063.84 576.332 1064.07 575.352 1064.53 574.499C1064.99 573.646 1065.62 572.984 1066.41 572.512C1067.2 572.036 1068.08 571.799 1069.04 571.799C1069.91 571.799 1070.66 571.97 1071.31 572.312C1071.96 572.65 1072.47 573.073 1072.86 573.581L1072.86 571.979L1075.16 571.979L1075.16 583L1072.86 583L1072.86 581.359C1072.47 581.88 1071.95 582.315 1071.28 582.663C1070.61 583.008 1069.85 583.181 1069 583.181C1068.05 583.181 1067.19 582.938 1066.4 582.453C1065.61 581.965 1064.99 581.284 1064.53 580.412C1064.07 579.536 1063.84 578.545 1063.84 577.438ZM1072.86 577.482C1072.86 576.721 1072.7 576.06 1072.39 575.5C1072.07 574.94 1071.66 574.514 1071.16 574.221C1070.65 573.928 1070.11 573.781 1069.52 573.781C1068.93 573.781 1068.39 573.924 1067.88 574.211C1067.37 574.497 1066.96 574.917 1066.65 575.471C1066.34 576.024 1066.18 576.68 1066.18 577.438C1066.18 578.2 1066.34 578.867 1066.65 579.44C1066.96 580.013 1067.38 580.45 1067.89 580.749C1068.4 581.049 1068.95 581.198 1069.52 581.198C1070.11 581.198 1070.65 581.052 1071.16 580.759C1071.66 580.466 1072.07 580.036 1072.39 579.47C1072.7 578.903 1072.86 578.241 1072.86 577.482Z" fill="rgb(244,67,54)" fill-rule="nonzero" />
	<path id="" d="M1080.82 573.84L1080.82 579.938C1080.82 580.352 1080.92 580.65 1081.11 580.832C1081.3 581.011 1081.63 581.101 1082.1 581.101L1083.5 581.101L1083.5 583L1081.7 583C1080.67 583 1079.89 582.761 1079.34 582.282C1078.79 581.8 1078.52 581.019 1078.52 579.938L1078.52 573.84L1077.22 573.84L1077.22 571.979L1078.52 571.979L1078.52 569.24L1080.82 569.24L1080.82 571.979L1083.5 571.979L1083.5 573.84L1080.82 573.84ZM1095.7 577.219C1095.7 577.632 1095.67 578.007 1095.62 578.342L1087.2 578.342C1087.27 579.221 1087.59 579.927 1088.18 580.461C1088.77 580.995 1089.49 581.262 1090.34 581.262C1091.57 581.262 1092.43 580.747 1092.94 579.719L1095.4 579.719C1095.07 580.734 1094.46 581.566 1093.59 582.214C1092.71 582.858 1091.63 583.181 1090.34 583.181C1089.29 583.181 1088.34 582.945 1087.51 582.473C1086.67 581.997 1086.02 581.33 1085.55 580.471C1085.08 579.611 1084.84 578.615 1084.84 577.482C1084.84 576.346 1085.07 575.349 1085.53 574.489C1085.99 573.63 1086.64 572.967 1087.47 572.502C1088.3 572.033 1089.26 571.799 1090.34 571.799C1091.38 571.799 1092.3 572.027 1093.12 572.482C1093.93 572.935 1094.57 573.571 1095.02 574.392C1095.47 575.212 1095.7 576.154 1095.7 577.219ZM1093.32 576.501C1093.31 575.661 1093.01 574.987 1092.42 574.479C1091.83 573.972 1091.11 573.718 1090.24 573.718C1089.45 573.718 1088.78 573.968 1088.22 574.47C1087.66 574.971 1087.33 575.648 1087.22 576.501L1093.32 576.501ZM1100.22 573.581C1100.55 573.021 1101 572.585 1101.55 572.272C1102.11 571.957 1102.76 571.799 1103.52 571.799L1103.52 574.162L1102.94 574.162C1102.05 574.162 1101.37 574.388 1100.91 574.841C1100.45 575.293 1100.22 576.079 1100.22 577.199L1100.22 583L1097.94 583L1097.94 571.979L1100.22 571.979L1100.22 573.581Z" fill="rgb(76,175,80)" fill-rule="nonzero" />
	<path id="" d="M1080.82 573.84L1080.82 579.938C1080.82 580.352 1080.92 580.65 1081.11 580.832C1081.3 581.011 1081.63 581.101 1082.1 581.101L1083.5 581.101L1083.5 583L1081.7 583C1080.67 583 1079.89 582.761 1079.34 582.282C1078.79 581.8 1078.52 581.019 1078.52 579.938L1078.52 573.84L1077.22 573.84L1077.22 571.979L1078.52 571.979L1078.52 569.24L1080.82 569.24L1080.82 571.979L1083.5 571.979L1083.5 573.84L1080.82 573.84ZM1095.7 577.219C1095.7 577.632 1095.67 578.007 1095.62 578.342L1087.2 578.342C1087.27 579.221 1087.59 579.927 1088.18 580.461C1088.77 580.995 1089.49 581.262 1090.34 581.262C1091.57 581.262 1092.43 580.747 1092.94 579.719L1095.4 579.719C1095.07 580.734 1094.46 581.566 1093.59 582.214C1092.71 582.858 1091.63 583.181 1090.34 583.181C1089.29 583.181 1088.34 582.945 1087.51 582.473C1086.67 581.997 1086.02 581.33 1085.55 580.471C1085.08 579.611 1084.84 578.615 1084.84 577.482C1084.84 576.346 1085.07 575.349 1085.53 574.489C1085.99 573.63 1086.64 572.967 1087.47 572.502C1088.3 572.033 1089.26 571.799 1090.34 571.799C1091.38 571.799 1092.3 572.027 1093.12 572.482C1093.93 572.935 1094.57 573.571 1095.02 574.392C1095.47 575.212 1095.7 576.154 1095.7 577.219ZM1093.32 576.501C1093.31 575.661 1093.01 574.987 1092.42 574.479C1091.83 573.972 1091.11 573.718 1090.24 573.718C1089.45 573.718 1088.78 573.968 1088.22 574.47C1087.66 574.971 1087.33 575.648 1087.22 576.501L1093.32 576.501ZM1100.22 573.581C1100.55 573.021 1101 572.585 1101.55 572.272C1102.11 571.957 1102.76 571.799 1103.52 571.799L1103.52 574.162L1102.94 574.162C1102.05 574.162 1101.37 574.388 1100.91 574.841C1100.45 575.293 1100.22 576.079 1100.22 577.199L1100.22 583L1097.94 583L1097.94 571.979L1100.22 571.979L1100.22 573.581Z" fill="rgb(26,26,26)" fill-opacity="0.400000006" fill-rule="nonzero" />
	<path id="" d="M670.942 831.799C671.795 831.799 672.55 831.97 673.208 832.312C673.869 832.65 674.386 833.073 674.761 833.581L674.761 831.979L677.061 831.979L677.061 843.181C677.061 844.193 676.847 845.096 676.421 845.891C675.994 846.685 675.378 847.308 674.57 847.761C673.763 848.213 672.799 848.439 671.68 848.439C670.186 848.439 668.945 848.09 667.959 847.39C666.973 846.69 666.413 845.739 666.279 844.538L668.54 844.538C668.713 845.114 669.082 845.578 669.648 845.93C670.215 846.284 670.892 846.462 671.68 846.462C672.601 846.462 673.345 846.182 673.911 845.622C674.478 845.062 674.761 844.248 674.761 843.181L674.761 841.34C674.373 841.861 673.849 842.299 673.188 842.653C672.531 843.005 671.782 843.181 670.942 843.181C669.982 843.181 669.105 842.938 668.311 842.453C667.516 841.965 666.89 841.284 666.431 840.412C665.972 839.536 665.742 838.545 665.742 837.438C665.742 836.332 665.972 835.352 666.431 834.499C666.89 833.646 667.516 832.984 668.311 832.512C669.105 832.036 669.982 831.799 670.942 831.799ZM674.761 837.482C674.761 836.721 674.603 836.06 674.287 835.5C673.975 834.94 673.564 834.514 673.057 834.221C672.552 833.928 672.007 833.781 671.421 833.781C670.835 833.781 670.288 833.924 669.78 834.211C669.272 834.497 668.862 834.917 668.55 835.471C668.237 836.024 668.081 836.68 668.081 837.438C668.081 838.2 668.237 838.867 668.55 839.44C668.862 840.013 669.276 840.45 669.79 840.749C670.304 841.049 670.848 841.198 671.421 841.198C672.007 841.198 672.552 841.052 673.057 840.759C673.564 840.466 673.975 840.036 674.287 839.47C674.603 838.903 674.761 838.241 674.761 837.482ZM690.162 837.219C690.162 837.632 690.134 838.007 690.079 838.342L681.661 838.342C681.726 839.221 682.051 839.927 682.637 840.461C683.226 840.995 683.947 841.262 684.8 841.262C686.027 841.262 686.893 840.747 687.398 839.719L689.859 839.719C689.527 840.734 688.923 841.566 688.047 842.214C687.175 842.858 686.093 843.181 684.8 843.181C683.746 843.181 682.802 842.945 681.968 842.473C681.135 841.997 680.482 841.33 680.01 840.471C679.538 839.611 679.302 838.615 679.302 837.482C679.302 836.346 679.532 835.349 679.991 834.489C680.45 833.63 681.096 832.967 681.929 832.502C682.762 832.033 683.719 831.799 684.8 831.799C685.839 831.799 686.765 832.027 687.579 832.482C688.392 832.935 689.026 833.571 689.478 834.392C689.934 835.212 690.162 836.154 690.162 837.219ZM687.779 836.501C687.766 835.661 687.466 834.987 686.88 834.479C686.294 833.972 685.567 833.718 684.698 833.718C683.913 833.718 683.241 833.968 682.681 834.47C682.121 834.971 681.788 835.648 681.68 836.501L687.779 836.501ZM697.961 831.799C698.826 831.799 699.603 831.979 700.29 832.341C700.977 832.699 701.514 833.233 701.901 833.942C702.288 834.649 702.482 835.502 702.482 836.501L702.482 843L700.221 843L700.221 836.838C700.221 835.852 699.974 835.096 699.479 834.572C698.988 834.045 698.314 833.781 697.458 833.781C696.605 833.781 695.928 834.045 695.426 834.572C694.928 835.096 694.679 835.852 694.679 836.838L694.679 843L692.399 843L692.399 831.979L694.679 831.979L694.679 833.239C695.054 832.787 695.531 832.434 696.11 832.18C696.689 831.926 697.306 831.799 697.961 831.799ZM715.482 837.219C715.482 837.632 715.454 838.007 715.399 838.342L706.981 838.342C707.046 839.221 707.371 839.927 707.957 840.461C708.546 840.995 709.267 841.262 710.12 841.262C711.347 841.262 712.213 840.747 712.718 839.719L715.179 839.719C714.847 840.734 714.243 841.566 713.367 842.214C712.495 842.858 711.413 843.181 710.12 843.181C709.066 843.181 708.122 842.945 707.288 842.473C706.455 841.997 705.802 841.33 705.33 840.471C704.858 839.611 704.622 838.615 704.622 837.482C704.622 836.346 704.852 835.349 705.311 834.489C705.77 833.63 706.416 832.967 707.249 832.502C708.082 832.033 709.039 831.799 710.12 831.799C711.159 831.799 712.085 832.027 712.899 832.482C713.712 832.935 714.345 833.571 714.798 834.392C715.254 835.212 715.482 836.154 715.482 837.219ZM713.099 836.501C713.086 835.661 712.786 834.987 712.2 834.479C711.614 833.972 710.887 833.718 710.018 833.718C709.233 833.718 708.561 833.968 708.001 834.47C707.441 834.971 707.108 835.648 707 836.501L713.099 836.501ZM719.999 833.581C720.335 833.021 720.779 832.585 721.332 832.272C721.886 831.957 722.542 831.799 723.3 831.799L723.3 834.162L722.719 834.162C721.827 834.162 721.15 834.388 720.688 834.841C720.229 835.293 719.999 836.079 719.999 837.199L719.999 843L717.719 843L717.719 831.979L719.999 831.979L719.999 833.581ZM724.642 837.438C724.642 836.332 724.872 835.352 725.331 834.499C725.79 833.646 726.416 832.984 727.211 832.512C728.005 832.036 728.882 831.799 729.842 831.799C730.708 831.799 731.464 831.97 732.108 832.312C732.756 832.65 733.273 833.073 733.661 833.581L733.661 831.979L735.961 831.979L735.961 843L733.661 843L733.661 841.359C733.273 841.88 732.746 842.315 732.079 842.663C731.411 843.008 730.651 843.181 729.798 843.181C728.854 843.181 727.989 842.938 727.201 842.453C726.413 841.965 725.79 841.284 725.331 840.412C724.872 839.536 724.642 838.545 724.642 837.438ZM733.661 837.482C733.661 836.721 733.503 836.06 733.187 835.5C732.875 834.94 732.464 834.514 731.957 834.221C731.452 833.928 730.907 833.781 730.321 833.781C729.735 833.781 729.188 833.924 728.68 834.211C728.172 834.497 727.762 834.917 727.45 835.471C727.137 836.024 726.981 836.68 726.981 837.438C726.981 838.2 727.137 838.867 727.45 839.44C727.762 840.013 728.176 840.45 728.69 840.749C729.204 841.049 729.748 841.198 730.321 841.198C730.907 841.198 731.452 841.052 731.957 840.759C732.464 840.466 732.875 840.036 733.187 839.47C733.503 838.903 733.661 838.241 733.661 837.482ZM741.62 833.84L741.62 839.938C741.62 840.352 741.716 840.65 741.908 840.832C742.104 841.011 742.434 841.101 742.899 841.101L744.301 841.101L744.301 843L742.499 843C741.474 843 740.688 842.761 740.141 842.282C739.594 841.8 739.32 841.019 739.32 839.938L739.32 833.84L738.022 833.84L738.022 831.979L739.32 831.979L739.32 829.24L741.62 829.24L741.62 831.979L744.301 831.979L744.301 833.84L741.62 833.84ZM747.561 830.52C747.148 830.52 746.801 830.38 746.521 830.1C746.241 829.82 746.101 829.473 746.101 829.06C746.101 828.646 746.241 828.299 746.521 828.02C746.801 827.74 747.148 827.6 747.561 827.6C747.962 827.6 748.302 827.74 748.582 828.02C748.862 828.299 749.002 828.646 749.002 829.06C749.002 829.473 748.862 829.82 748.582 830.1C748.302 830.38 747.962 830.52 747.561 830.52ZM748.679 831.979L748.679 843L746.399 843L746.399 831.979L748.679 831.979ZM756.459 843.181C755.421 843.181 754.482 842.945 753.642 842.473C752.802 841.997 752.141 841.33 751.659 840.471C751.181 839.611 750.942 838.615 750.942 837.482C750.942 836.359 751.188 835.365 751.679 834.499C752.174 833.633 752.848 832.967 753.701 832.502C754.553 832.033 755.507 831.799 756.562 831.799C757.613 831.799 758.565 832.033 759.418 832.502C760.271 832.967 760.945 833.633 761.44 834.499C761.935 835.365 762.182 836.359 762.182 837.482C762.182 838.602 761.928 839.595 761.42 840.461C760.912 841.327 760.222 841.997 759.35 842.473C758.478 842.945 757.514 843.181 756.459 843.181ZM756.459 841.198C757.045 841.198 757.595 841.058 758.11 840.778C758.624 840.498 759.041 840.078 759.36 839.519C759.679 838.959 759.838 838.28 759.838 837.482C759.838 836.682 759.685 836.005 759.379 835.451C759.073 834.898 758.666 834.481 758.159 834.201C757.654 833.921 757.107 833.781 756.518 833.781C755.932 833.781 755.388 833.921 754.887 834.201C754.389 834.481 753.993 834.898 753.701 835.451C753.408 836.005 753.261 836.682 753.261 837.482C753.261 838.667 753.564 839.584 754.169 840.231C754.778 840.876 755.541 841.198 756.459 841.198ZM770.001 831.799C770.866 831.799 771.643 831.979 772.33 832.341C773.016 832.699 773.554 833.233 773.941 833.942C774.328 834.649 774.522 835.502 774.522 836.501L774.522 843L772.261 843L772.261 836.838C772.261 835.852 772.014 835.096 771.519 834.572C771.028 834.045 770.354 833.781 769.498 833.781C768.645 833.781 767.968 834.045 767.466 834.572C766.968 835.096 766.719 835.852 766.719 836.838L766.719 843L764.439 843L764.439 831.979L766.719 831.979L766.719 833.239C767.094 832.787 767.571 832.434 768.15 832.18C768.729 831.926 769.346 831.799 770.001 831.799Z" fill="rgb(26,26,26)" fill-opacity="0.400000006" fill-rule="nonzero" />
	<path id="" d="M936.118 366.84L934.082 366.84L934.082 376L931.782 376L931.782 366.84L930.479 366.84L930.479 364.979L931.782 364.979L931.782 364.198C931.782 362.932 932.117 362.009 932.788 361.43C933.462 360.85 934.52 360.561 935.962 360.561L935.962 362.46C935.269 362.46 934.782 362.59 934.502 362.851C934.222 363.111 934.082 363.56 934.082 364.198L934.082 364.979L936.118 364.979L936.118 366.84ZM940.419 366.581C940.755 366.021 941.199 365.585 941.752 365.272C942.306 364.957 942.962 364.799 943.72 364.799L943.72 367.162L943.139 367.162C942.247 367.162 941.57 367.388 941.108 367.841C940.649 368.293 940.419 369.079 940.419 370.199L940.419 376L938.139 376L938.139 364.979L940.419 364.979L940.419 366.581ZM955.922 370.219C955.922 370.632 955.894 371.007 955.839 371.342L947.421 371.342C947.486 372.221 947.811 372.927 948.397 373.461C948.986 373.995 949.707 374.262 950.56 374.262C951.787 374.262 952.653 373.747 953.158 372.719L955.619 372.719C955.287 373.734 954.683 374.566 953.807 375.214C952.935 375.858 951.853 376.181 950.56 376.181C949.506 376.181 948.562 375.945 947.728 375.473C946.895 374.997 946.242 374.33 945.77 373.471C945.298 372.611 945.062 371.615 945.062 370.482C945.062 369.346 945.292 368.349 945.751 367.489C946.21 366.63 946.856 365.967 947.689 365.502C948.522 365.033 949.479 364.799 950.56 364.799C951.599 364.799 952.525 365.027 953.339 365.482C954.152 365.935 954.786 366.571 955.238 367.392C955.694 368.212 955.922 369.154 955.922 370.219ZM953.539 369.501C953.526 368.661 953.226 367.987 952.64 367.479C952.054 366.972 951.327 366.718 950.458 366.718C949.673 366.718 949.001 366.968 948.441 367.47C947.881 367.971 947.548 368.648 947.44 369.501L953.539 369.501ZM968.262 370.219C968.262 370.632 968.234 371.007 968.179 371.342L959.761 371.342C959.826 372.221 960.151 372.927 960.737 373.461C961.326 373.995 962.047 374.262 962.9 374.262C964.127 374.262 964.993 373.747 965.498 372.719L967.959 372.719C967.627 373.734 967.023 374.566 966.147 375.214C965.275 375.858 964.193 376.181 962.9 376.181C961.846 376.181 960.902 375.945 960.068 375.473C959.235 374.997 958.582 374.33 958.11 373.471C957.638 372.611 957.402 371.615 957.402 370.482C957.402 369.346 957.632 368.349 958.091 367.489C958.55 366.63 959.196 365.967 960.029 365.502C960.862 365.033 961.82 364.799 962.9 364.799C963.939 364.799 964.865 365.027 965.679 365.482C966.492 365.935 967.125 366.571 967.578 367.392C968.034 368.212 968.262 369.154 968.262 370.219ZM965.879 369.501C965.866 368.661 965.566 367.987 964.98 367.479C964.394 366.972 963.667 366.718 962.798 366.718C962.013 366.718 961.341 366.968 960.781 367.47C960.221 367.971 959.888 368.648 959.78 369.501L965.879 369.501ZM969.742 370.438C969.742 369.332 969.972 368.352 970.431 367.499C970.89 366.646 971.516 365.984 972.311 365.512C973.105 365.036 973.989 364.799 974.962 364.799C975.681 364.799 976.391 364.957 977.091 365.272C977.791 365.585 978.347 366 978.761 366.518L978.761 361.2L981.061 361.2L981.061 376L978.761 376L978.761 374.34C978.386 374.874 977.869 375.315 977.208 375.663C976.55 376.008 975.795 376.181 974.942 376.181C973.982 376.181 973.105 375.938 972.311 375.453C971.516 374.965 970.89 374.285 970.431 373.412C969.972 372.536 969.742 371.545 969.742 370.438ZM978.761 370.482C978.761 369.721 978.603 369.06 978.287 368.5C977.975 367.94 977.564 367.514 977.057 367.221C976.552 366.928 976.007 366.781 975.421 366.781C974.835 366.781 974.288 366.924 973.78 367.211C973.272 367.497 972.862 367.917 972.55 368.471C972.237 369.024 972.081 369.68 972.081 370.438C972.081 371.2 972.237 371.868 972.55 372.44C972.862 373.013 973.276 373.45 973.79 373.749C974.304 374.048 974.848 374.198 975.421 374.198C976.007 374.198 976.552 374.052 977.057 373.759C977.564 373.466 977.975 373.036 978.287 372.47C978.603 371.903 978.761 371.241 978.761 370.482ZM988.839 376.181C987.801 376.181 986.862 375.945 986.022 375.473C985.182 374.997 984.521 374.33 984.039 373.471C983.561 372.611 983.322 371.615 983.322 370.482C983.322 369.359 983.568 368.365 984.059 367.499C984.554 366.633 985.228 365.967 986.081 365.502C986.933 365.033 987.887 364.799 988.942 364.799C989.993 364.799 990.945 365.033 991.798 365.502C992.651 365.967 993.325 366.633 993.82 367.499C994.315 368.365 994.562 369.359 994.562 370.482C994.562 371.602 994.308 372.595 993.8 373.461C993.292 374.327 992.602 374.997 991.73 375.473C990.858 375.945 989.894 376.181 988.839 376.181ZM988.839 374.198C989.425 374.198 989.975 374.058 990.49 373.778C991.004 373.498 991.421 373.078 991.74 372.519C992.059 371.959 992.218 371.28 992.218 370.482C992.218 369.682 992.065 369.005 991.759 368.451C991.453 367.898 991.046 367.481 990.539 367.201C990.034 366.921 989.487 366.781 988.898 366.781C988.312 366.781 987.768 366.921 987.267 367.201C986.769 367.481 986.373 367.898 986.081 368.451C985.788 369.005 985.641 369.682 985.641 370.482C985.641 371.667 985.944 372.584 986.549 373.231C987.158 373.876 987.921 374.198 988.839 374.198ZM1010.16 364.799C1011.02 364.799 1011.8 364.979 1012.49 365.341C1013.17 365.699 1013.72 366.233 1014.11 366.942C1014.5 367.649 1014.7 368.502 1014.7 369.501L1014.7 376L1012.44 376L1012.44 369.838C1012.44 368.852 1012.19 368.096 1011.7 367.572C1011.21 367.045 1010.53 366.781 1009.68 366.781C1008.83 366.781 1008.15 367.045 1007.65 367.572C1007.15 368.096 1006.9 368.852 1006.9 369.838L1006.9 376L1004.64 376L1004.64 369.838C1004.64 368.852 1004.39 368.096 1003.9 367.572C1003.41 367.045 1002.73 366.781 1001.88 366.781C1001.02 366.781 1000.35 367.045 999.846 367.572C999.348 368.096 999.099 368.852 999.099 369.838L999.099 376L996.819 376L996.819 364.979L999.099 364.979L999.099 366.239C999.474 365.787 999.947 365.434 1000.52 365.18C1001.09 364.926 1001.71 364.799 1002.36 364.799C1003.24 364.799 1004.03 364.986 1004.72 365.36C1005.41 365.735 1005.95 366.275 1006.32 366.981C1006.65 366.314 1007.17 365.784 1007.88 365.39C1008.58 364.996 1009.35 364.799 1010.16 364.799Z" fill="rgb(26,26,26)" fill-opacity="0.400000006" fill-rule="nonzero" />
	<path id="" d="M405.742 385.438C405.742 384.332 405.972 383.352 406.431 382.499C406.89 381.646 407.516 380.984 408.311 380.512C409.105 380.036 409.982 379.799 410.942 379.799C411.808 379.799 412.563 379.97 413.208 380.312C413.856 380.65 414.373 381.073 414.761 381.581L414.761 379.979L417.061 379.979L417.061 391L414.761 391L414.761 389.359C414.373 389.88 413.846 390.315 413.179 390.663C412.511 391.008 411.751 391.181 410.898 391.181C409.954 391.181 409.089 390.938 408.301 390.453C407.513 389.965 406.89 389.285 406.431 388.412C405.972 387.536 405.742 386.545 405.742 385.438ZM414.761 385.482C414.761 384.721 414.603 384.06 414.287 383.5C413.975 382.94 413.564 382.514 413.057 382.221C412.552 381.928 412.007 381.781 411.421 381.781C410.835 381.781 410.288 381.924 409.78 382.211C409.272 382.497 408.862 382.917 408.55 383.471C408.237 384.024 408.081 384.68 408.081 385.438C408.081 386.2 408.237 386.868 408.55 387.44C408.862 388.013 409.276 388.45 409.79 388.749C410.304 389.048 410.848 389.198 411.421 389.198C412.007 389.198 412.552 389.052 413.057 388.759C413.564 388.466 413.975 388.036 414.287 387.47C414.603 386.903 414.761 386.241 414.761 385.482ZM422.339 381.601C422.727 381.093 423.254 380.666 423.921 380.321C424.589 379.973 425.342 379.799 426.182 379.799C427.139 379.799 428.015 380.036 428.809 380.512C429.603 380.984 430.227 381.646 430.679 382.499C431.132 383.352 431.358 384.332 431.358 385.438C431.358 386.545 431.132 387.536 430.679 388.412C430.227 389.285 429.603 389.965 428.809 390.453C428.015 390.938 427.139 391.181 426.182 391.181C425.342 391.181 424.595 391.011 423.941 390.673C423.287 390.331 422.753 389.906 422.339 389.398L422.339 396.239L420.059 396.239L420.059 379.979L422.339 379.979L422.339 381.601ZM429.039 385.438C429.039 384.68 428.882 384.024 428.57 383.471C428.257 382.917 427.844 382.497 427.33 382.211C426.815 381.924 426.265 381.781 425.679 381.781C425.106 381.781 424.563 381.928 424.048 382.221C423.537 382.514 423.124 382.94 422.808 383.5C422.496 384.06 422.339 384.721 422.339 385.482C422.339 386.241 422.496 386.903 422.808 387.47C423.124 388.036 423.537 388.466 424.048 388.759C424.563 389.052 425.106 389.198 425.679 389.198C426.265 389.198 426.815 389.048 427.33 388.749C427.844 388.45 428.257 388.013 428.57 387.44C428.882 386.868 429.039 386.2 429.039 385.438ZM432.862 385.438C432.862 384.332 433.092 383.352 433.551 382.499C434.01 381.646 434.636 380.984 435.431 380.512C436.225 380.036 437.102 379.799 438.062 379.799C438.928 379.799 439.683 379.97 440.328 380.312C440.976 380.65 441.493 381.073 441.881 381.581L441.881 379.979L444.181 379.979L444.181 391L441.881 391L441.881 389.359C441.493 389.88 440.966 390.315 440.299 390.663C439.631 391.008 438.871 391.181 438.018 391.181C437.074 391.181 436.209 390.938 435.421 390.453C434.633 389.965 434.01 389.285 433.551 388.412C433.092 387.536 432.862 386.545 432.862 385.438ZM441.881 385.482C441.881 384.721 441.723 384.06 441.407 383.5C441.095 382.94 440.684 382.514 440.177 382.221C439.672 381.928 439.127 381.781 438.541 381.781C437.955 381.781 437.408 381.924 436.9 382.211C436.392 382.497 435.982 382.917 435.67 383.471C435.357 384.024 435.201 384.68 435.201 385.438C435.201 386.2 435.357 386.868 435.67 387.44C435.982 388.013 436.396 388.45 436.91 388.749C437.424 389.048 437.968 389.198 438.541 389.198C439.127 389.198 439.672 389.052 440.177 388.759C440.684 388.466 441.095 388.036 441.407 387.47C441.723 386.903 441.881 386.241 441.881 385.482ZM449.459 381.581C449.795 381.021 450.239 380.585 450.792 380.272C451.346 379.957 452.002 379.799 452.76 379.799L452.76 382.162L452.179 382.162C451.287 382.162 450.61 382.388 450.148 382.841C449.689 383.293 449.459 384.079 449.459 385.199L449.459 391L447.179 391L447.179 379.979L449.459 379.979L449.459 381.581ZM457.52 381.84L457.52 387.938C457.52 388.352 457.616 388.65 457.808 388.832C458.004 389.011 458.334 389.101 458.799 389.101L460.201 389.101L460.201 391L458.399 391C457.374 391 456.588 390.761 456.041 390.282C455.494 389.8 455.22 389.019 455.22 387.938L455.22 381.84L453.922 381.84L453.922 379.979L455.22 379.979L455.22 377.24L457.52 377.24L457.52 379.979L460.201 379.979L460.201 381.84L457.52 381.84Z" fill="rgb(76,175,80)" fill-rule="nonzero" />
	<path id="" d="M475.639 379.799C476.505 379.799 477.281 379.979 477.968 380.341C478.655 380.699 479.195 381.233 479.589 381.942C479.983 382.649 480.18 383.502 480.18 384.501L480.18 391L477.919 391L477.919 384.838C477.919 383.852 477.672 383.096 477.177 382.572C476.685 382.045 476.013 381.781 475.16 381.781C474.307 381.781 473.63 382.045 473.129 382.572C472.631 383.096 472.382 383.852 472.382 384.838L472.382 391L470.121 391L470.121 384.838C470.121 383.852 469.874 383.096 469.379 382.572C468.888 382.045 468.214 381.781 467.358 381.781C466.505 381.781 465.828 382.045 465.326 382.572C464.828 383.096 464.579 383.852 464.579 384.838L464.579 391L462.299 391L462.299 379.979L464.579 379.979L464.579 381.239C464.954 380.787 465.427 380.434 466 380.18C466.573 379.926 467.187 379.799 467.841 379.799C468.72 379.799 469.506 379.986 470.199 380.36C470.893 380.735 471.427 381.275 471.801 381.981C472.133 381.314 472.652 380.784 473.359 380.39C474.065 379.996 474.825 379.799 475.639 379.799ZM493.182 385.219C493.182 385.632 493.154 386.007 493.099 386.342L484.681 386.342C484.746 387.221 485.071 387.927 485.657 388.461C486.246 388.995 486.967 389.262 487.82 389.262C489.047 389.262 489.913 388.747 490.418 387.719L492.879 387.719C492.547 388.734 491.943 389.566 491.067 390.214C490.195 390.858 489.113 391.181 487.82 391.181C486.766 391.181 485.822 390.945 484.988 390.473C484.155 389.997 483.502 389.33 483.03 388.471C482.558 387.611 482.322 386.615 482.322 385.482C482.322 384.346 482.552 383.349 483.011 382.489C483.47 381.63 484.116 380.967 484.949 380.502C485.782 380.033 486.74 379.799 487.82 379.799C488.859 379.799 489.785 380.027 490.599 380.482C491.412 380.935 492.046 381.571 492.498 382.392C492.954 383.212 493.182 384.154 493.182 385.219ZM490.799 384.501C490.786 383.661 490.486 382.987 489.9 382.479C489.314 381.972 488.587 381.718 487.718 381.718C486.933 381.718 486.261 381.968 485.701 382.47C485.141 382.971 484.808 383.648 484.7 384.501L490.799 384.501ZM500.981 379.799C501.846 379.799 502.623 379.979 503.31 380.341C503.996 380.699 504.534 381.233 504.921 381.942C505.308 382.649 505.502 383.502 505.502 384.501L505.502 391L503.241 391L503.241 384.838C503.241 383.852 502.994 383.096 502.499 382.572C502.008 382.045 501.334 381.781 500.478 381.781C499.625 381.781 498.948 382.045 498.446 382.572C497.948 383.096 497.699 383.852 497.699 384.838L497.699 391L495.419 391L495.419 379.979L497.699 379.979L497.699 381.239C498.074 380.787 498.551 380.434 499.13 380.18C499.709 379.926 500.326 379.799 500.981 379.799ZM511.06 381.84L511.06 387.938C511.06 388.352 511.156 388.65 511.348 388.832C511.544 389.011 511.874 389.101 512.339 389.101L513.741 389.101L513.741 391L511.939 391C510.914 391 510.128 390.761 509.581 390.282C509.034 389.8 508.76 389.019 508.76 387.938L508.76 381.84L507.462 381.84L507.462 379.979L508.76 379.979L508.76 377.24L511.06 377.24L511.06 379.979L513.741 379.979L513.741 381.84L511.06 381.84Z" fill="rgb(76,175,80)" fill-rule="nonzero" />
	<path id="" d="M475.639 379.799C476.505 379.799 477.281 379.979 477.968 380.341C478.655 380.699 479.195 381.233 479.589 381.942C479.983 382.649 480.18 383.502 480.18 384.501L480.18 391L477.919 391L477.919 384.838C477.919 383.852 477.672 383.096 477.177 382.572C476.685 382.045 476.013 381.781 475.16 381.781C474.307 381.781 473.63 382.045 473.129 382.572C472.631 383.096 472.382 383.852 472.382 384.838L472.382 391L470.121 391L470.121 384.838C470.121 383.852 469.874 383.096 469.379 382.572C468.888 382.045 468.214 381.781 467.358 381.781C466.505 381.781 465.828 382.045 465.326 382.572C464.828 383.096 464.579 383.852 464.579 384.838L464.579 391L462.299 391L462.299 379.979L464.579 379.979L464.579 381.239C464.954 380.787 465.427 380.434 466 380.18C466.573 379.926 467.187 379.799 467.841 379.799C468.72 379.799 469.506 379.986 470.199 380.36C470.893 380.735 471.427 381.275 471.801 381.981C472.133 381.314 472.652 380.784 473.359 380.39C474.065 379.996 474.825 379.799 475.639 379.799ZM493.182 385.219C493.182 385.632 493.154 386.007 493.099 386.342L484.681 386.342C484.746 387.221 485.071 387.927 485.657 388.461C486.246 388.995 486.967 389.262 487.82 389.262C489.047 389.262 489.913 388.747 490.418 387.719L492.879 387.719C492.547 388.734 491.943 389.566 491.067 390.214C490.195 390.858 489.113 391.181 487.82 391.181C486.766 391.181 485.822 390.945 484.988 390.473C484.155 389.997 483.502 389.33 483.03 388.471C482.558 387.611 482.322 386.615 482.322 385.482C482.322 384.346 482.552 383.349 483.011 382.489C483.47 381.63 484.116 380.967 484.949 380.502C485.782 380.033 486.74 379.799 487.82 379.799C488.859 379.799 489.785 380.027 490.599 380.482C491.412 380.935 492.046 381.571 492.498 382.392C492.954 383.212 493.182 384.154 493.182 385.219ZM490.799 384.501C490.786 383.661 490.486 382.987 489.9 382.479C489.314 381.972 488.587 381.718 487.718 381.718C486.933 381.718 486.261 381.968 485.701 382.47C485.141 382.971 484.808 383.648 484.7 384.501L490.799 384.501ZM500.981 379.799C501.846 379.799 502.623 379.979 503.31 380.341C503.996 380.699 504.534 381.233 504.921 381.942C505.308 382.649 505.502 383.502 505.502 384.501L505.502 391L503.241 391L503.241 384.838C503.241 383.852 502.994 383.096 502.499 382.572C502.008 382.045 501.334 381.781 500.478 381.781C499.625 381.781 498.948 382.045 498.446 382.572C497.948 383.096 497.699 383.852 497.699 384.838L497.699 391L495.419 391L495.419 379.979L497.699 379.979L497.699 381.239C498.074 380.787 498.551 380.434 499.13 380.18C499.709 379.926 500.326 379.799 500.981 379.799ZM511.06 381.84L511.06 387.938C511.06 388.352 511.156 388.65 511.348 388.832C511.544 389.011 511.874 389.101 512.339 389.101L513.741 389.101L513.741 391L511.939 391C510.914 391 510.128 390.761 509.581 390.282C509.034 389.8 508.76 389.019 508.76 387.938L508.76 381.84L507.462 381.84L507.462 379.979L508.76 379.979L508.76 377.24L511.06 377.24L511.06 379.979L513.741 379.979L513.741 381.84L511.06 381.84Z" fill="rgb(26,26,26)" fill-opacity="0.400000006" fill-rule="nonzero" />
	<path id="" d="M372.779 477.581C373.115 477.021 373.559 476.585 374.112 476.272C374.666 475.957 375.322 475.799 376.08 475.799L376.08 478.162L375.499 478.162C374.607 478.162 373.93 478.388 373.468 478.841C373.009 479.293 372.779 480.079 372.779 481.199L372.779 487L370.499 487L370.499 475.979L372.779 475.979L372.779 477.581Z" fill="rgb(76,175,80)" fill-rule="nonzero" />
	<path id="" d="M380.459 477.601C380.847 477.093 381.374 476.666 382.041 476.321C382.709 475.973 383.462 475.799 384.302 475.799C385.259 475.799 386.135 476.036 386.929 476.512C387.723 476.984 388.347 477.646 388.799 478.499C389.252 479.352 389.478 480.332 389.478 481.438C389.478 482.545 389.252 483.536 388.799 484.412C388.347 485.285 387.723 485.965 386.929 486.453C386.135 486.938 385.259 487.181 384.302 487.181C383.462 487.181 382.715 487.011 382.061 486.673C381.407 486.331 380.873 485.906 380.459 485.398L380.459 492.239L378.179 492.239L378.179 475.979L380.459 475.979L380.459 477.601ZM387.159 481.438C387.159 480.68 387.002 480.024 386.69 479.471C386.377 478.917 385.964 478.497 385.45 478.211C384.935 477.924 384.385 477.781 383.799 477.781C383.226 477.781 382.683 477.928 382.168 478.221C381.657 478.514 381.244 478.94 380.928 479.5C380.616 480.06 380.459 480.721 380.459 481.482C380.459 482.241 380.616 482.903 380.928 483.47C381.244 484.036 381.657 484.466 382.168 484.759C382.683 485.052 383.226 485.198 383.799 485.198C384.385 485.198 384.935 485.048 385.45 484.749C385.964 484.45 386.377 484.013 386.69 483.44C387.002 482.868 387.159 482.2 387.159 481.438Z" fill="rgb(76,175,80)" fill-rule="nonzero" />
	<path id="" d="M380.459 477.601C380.847 477.093 381.374 476.666 382.041 476.321C382.709 475.973 383.462 475.799 384.302 475.799C385.259 475.799 386.135 476.036 386.929 476.512C387.723 476.984 388.347 477.646 388.799 478.499C389.252 479.352 389.478 480.332 389.478 481.438C389.478 482.545 389.252 483.536 388.799 484.412C388.347 485.285 387.723 485.965 386.929 486.453C386.135 486.938 385.259 487.181 384.302 487.181C383.462 487.181 382.715 487.011 382.061 486.673C381.407 486.331 380.873 485.906 380.459 485.398L380.459 492.239L378.179 492.239L378.179 475.979L380.459 475.979L380.459 477.601ZM387.159 481.438C387.159 480.68 387.002 480.024 386.69 479.471C386.377 478.917 385.964 478.497 385.45 478.211C384.935 477.924 384.385 477.781 383.799 477.781C383.226 477.781 382.683 477.928 382.168 478.221C381.657 478.514 381.244 478.94 380.928 479.5C380.616 480.06 380.459 480.721 380.459 481.482C380.459 482.241 380.616 482.903 380.928 483.47C381.244 484.036 381.657 484.466 382.168 484.759C382.683 485.052 383.226 485.198 383.799 485.198C384.385 485.198 384.935 485.048 385.45 484.749C385.964 484.45 386.377 484.013 386.69 483.44C387.002 482.868 387.159 482.2 387.159 481.438Z" fill="rgb(244,67,54)" fill-rule="nonzero" />
	<path id="" d="M397.301 475.799C398.166 475.799 398.943 475.979 399.63 476.341C400.316 476.699 400.854 477.233 401.241 477.942C401.628 478.649 401.822 479.502 401.822 480.501L401.822 487L399.561 487L399.561 480.838C399.561 479.852 399.314 479.096 398.819 478.572C398.328 478.045 397.654 477.781 396.798 477.781C395.945 477.781 395.268 478.045 394.766 478.572C394.268 479.096 394.019 479.852 394.019 480.838L394.019 487L391.739 487L391.739 475.979L394.019 475.979L394.019 477.239C394.394 476.787 394.871 476.434 395.45 476.18C396.029 475.926 396.646 475.799 397.301 475.799Z" fill="rgb(76,175,80)" fill-rule="nonzero" />
	<path id="" d="M397.301 475.799C398.166 475.799 398.943 475.979 399.63 476.341C400.316 476.699 400.854 477.233 401.241 477.942C401.628 478.649 401.822 479.502 401.822 480.501L401.822 487L399.561 487L399.561 480.838C399.561 479.852 399.314 479.096 398.819 478.572C398.328 478.045 397.654 477.781 396.798 477.781C395.945 477.781 395.268 478.045 394.766 478.572C394.268 479.096 394.019 479.852 394.019 480.838L394.019 487L391.739 487L391.739 475.979L394.019 475.979L394.019 477.239C394.394 476.787 394.871 476.434 395.45 476.18C396.029 475.926 396.646 475.799 397.301 475.799Z" fill="rgb(26,26,26)" fill-opacity="0.600000024" fill-rule="nonzero" />
	<path id="" d="M1009.5 457.181C1008.63 457.181 1007.86 457.024 1007.17 456.712C1006.48 456.396 1005.94 455.97 1005.54 455.433C1005.14 454.892 1004.93 454.288 1004.9 453.621L1007.26 453.621C1007.3 454.087 1007.52 454.477 1007.93 454.793C1008.34 455.105 1008.85 455.262 1009.46 455.262C1010.1 455.262 1010.6 455.138 1010.95 454.891C1011.3 454.643 1011.48 454.326 1011.48 453.938C1011.48 453.525 1011.28 453.219 1010.89 453.021C1010.5 452.819 1009.87 452.599 1009.02 452.361C1008.19 452.133 1007.52 451.914 1007 451.702C1006.48 451.487 1006.03 451.16 1005.65 450.721C1005.27 450.281 1005.08 449.702 1005.08 448.982C1005.08 448.393 1005.25 447.856 1005.6 447.371C1005.95 446.883 1006.44 446.499 1007.09 446.219C1007.73 445.939 1008.48 445.799 1009.32 445.799C1010.58 445.799 1011.58 446.116 1012.35 446.751C1013.12 447.382 1013.53 448.245 1013.58 449.339L1011.3 449.339C1011.26 448.847 1011.06 448.455 1010.7 448.162C1010.34 447.866 1009.85 447.718 1009.24 447.718C1008.64 447.718 1008.18 447.832 1007.86 448.06C1007.54 448.287 1007.38 448.587 1007.38 448.958C1007.38 449.254 1007.48 449.502 1007.7 449.7C1007.91 449.899 1008.17 450.055 1008.48 450.169C1008.79 450.283 1009.24 450.426 1009.84 450.599C1010.64 450.813 1011.3 451.032 1011.81 451.253C1012.32 451.471 1012.77 451.793 1013.14 452.22C1013.51 452.646 1013.71 453.213 1013.72 453.919C1013.72 454.547 1013.55 455.109 1013.2 455.604C1012.85 456.095 1012.36 456.481 1011.73 456.761C1011.1 457.041 1010.35 457.181 1009.5 457.181ZM1026.16 445.979L1026.16 457L1023.88 457L1023.88 455.701C1023.52 456.154 1023.05 456.51 1022.47 456.771C1021.89 457.031 1021.27 457.161 1020.62 457.161C1019.75 457.161 1018.98 456.982 1018.29 456.624C1017.6 456.263 1017.06 455.729 1016.67 455.022C1016.28 454.313 1016.08 453.458 1016.08 452.459L1016.08 445.979L1018.34 445.979L1018.34 452.122C1018.34 453.108 1018.59 453.865 1019.08 454.393C1019.57 454.917 1020.25 455.179 1021.1 455.179C1021.95 455.179 1022.63 454.917 1023.13 454.393C1023.63 453.865 1023.88 453.108 1023.88 452.122L1023.88 445.979L1026.16 445.979ZM1034.72 445.799C1035.59 445.799 1036.36 445.979 1037.05 446.341C1037.74 446.699 1038.27 447.233 1038.66 447.942C1039.05 448.649 1039.24 449.502 1039.24 450.501L1039.24 457L1036.98 457L1036.98 450.838C1036.98 449.852 1036.73 449.096 1036.24 448.572C1035.75 448.045 1035.07 447.781 1034.22 447.781C1033.36 447.781 1032.69 448.045 1032.19 448.572C1031.69 449.096 1031.44 449.852 1031.44 450.838L1031.44 457L1029.16 457L1029.16 445.979L1031.44 445.979L1031.44 447.239C1031.81 446.787 1032.29 446.434 1032.87 446.18C1033.45 445.926 1034.07 445.799 1034.72 445.799Z" fill="rgb(26,26,26)" fill-opacity="0.400000006" fill-rule="nonzero" />
	<path id="" d="M1001.74 700.482C1001.74 699.346 1001.97 698.349 1002.43 697.489C1002.89 696.63 1003.53 695.967 1004.34 695.502C1005.15 695.033 1006.09 694.799 1007.14 694.799C1008.47 694.799 1009.58 695.116 1010.45 695.751C1011.32 696.383 1011.91 697.286 1012.22 698.461L1009.76 698.461C1009.56 697.914 1009.24 697.488 1008.8 697.182C1008.36 696.872 1007.8 696.718 1007.14 696.718C1006.21 696.718 1005.46 697.048 1004.91 697.709C1004.36 698.37 1004.08 699.294 1004.08 700.482C1004.08 701.667 1004.36 702.593 1004.91 703.261C1005.46 703.928 1006.21 704.262 1007.14 704.262C1008.46 704.262 1009.33 703.681 1009.76 702.519L1012.22 702.519C1011.9 703.638 1011.3 704.529 1010.42 705.189C1009.54 705.85 1008.45 706.181 1007.14 706.181C1006.09 706.181 1005.15 705.945 1004.34 705.473C1003.53 704.997 1002.89 704.33 1002.43 703.471C1001.97 702.611 1001.74 701.615 1001.74 700.482ZM1013.74 700.438C1013.74 699.332 1013.97 698.352 1014.43 697.499C1014.89 696.646 1015.52 695.984 1016.31 695.512C1017.1 695.036 1017.98 694.799 1018.94 694.799C1019.81 694.799 1020.56 694.97 1021.21 695.312C1021.86 695.65 1022.37 696.073 1022.76 696.581L1022.76 694.979L1025.06 694.979L1025.06 706L1022.76 706L1022.76 704.359C1022.37 704.88 1021.85 705.315 1021.18 705.663C1020.51 706.008 1019.75 706.181 1018.9 706.181C1017.95 706.181 1017.09 705.938 1016.3 705.453C1015.51 704.965 1014.89 704.284 1014.43 703.412C1013.97 702.536 1013.74 701.545 1013.74 700.438ZM1022.76 700.482C1022.76 699.721 1022.6 699.06 1022.29 698.5C1021.97 697.94 1021.56 697.514 1021.06 697.221C1020.55 696.928 1020.01 696.781 1019.42 696.781C1018.83 696.781 1018.29 696.924 1017.78 697.211C1017.27 697.497 1016.86 697.917 1016.55 698.471C1016.24 699.024 1016.08 699.68 1016.08 700.438C1016.08 701.2 1016.24 701.867 1016.55 702.44C1016.86 703.013 1017.28 703.45 1017.79 703.749C1018.3 704.049 1018.85 704.198 1019.42 704.198C1020.01 704.198 1020.55 704.052 1021.06 703.759C1021.56 703.466 1021.97 703.036 1022.29 702.47C1022.6 701.903 1022.76 701.241 1022.76 700.482ZM1030.72 696.84L1030.72 702.938C1030.72 703.352 1030.82 703.65 1031.01 703.832C1031.2 704.011 1031.53 704.101 1032 704.101L1033.4 704.101L1033.4 706L1031.6 706C1030.57 706 1029.79 705.761 1029.24 705.282C1028.69 704.8 1028.42 704.019 1028.42 702.938L1028.42 696.84L1027.12 696.84L1027.12 694.979L1028.42 694.979L1028.42 692.24L1030.72 692.24L1030.72 694.979L1033.4 694.979L1033.4 696.84L1030.72 696.84Z" fill="rgb(76,175,80)" fill-rule="nonzero" />
</svg>
