<svg viewBox="0 0 36 36" xmlns="http://www.w3.org/2000/svg" xmlns:xlink="http://www.w3.org/1999/xlink" width="36.000000" height="36.000000" fill="none">
	<rect id="ruler-svgrepo-com 1" width="36.000000" height="36.000000" x="0.000000" y="0.000000" />
	<path id="Vector 1" d="M28.5 18.3472L29.9319 16.9153C31.9773 14.8699 33 13.8472 33 12.5764C33 11.3056 31.9773 10.2829 29.9319 8.2375L27.7625 6.06806C25.7172 4.02269 24.6945 3 23.4235 3C22.1528 3 21.1301 4.02269 19.0847 6.06806L6.06806 19.0847C4.02269 21.1301 3 22.1528 3 23.4235C3 24.6945 4.02269 25.7172 6.06806 27.7625L8.2375 29.9319C10.2829 31.9773 11.3056 33 12.5764 33C13.8472 33 14.8699 31.9773 16.9153 29.9319L24.3473 22.5" fill-rule="nonzero" stroke="rgb(26,26,26)" stroke-linecap="round" stroke-width="3" />
	<path id="Vector 2" d="M12.6965 12.6967L14.8178 14.818" stroke="rgb(26,26,26)" stroke-linecap="round" stroke-width="3" />
	<path id="Vector 3" d="M19.0605 6.3327L21.1818 8.45403" stroke="rgb(26,26,26)" stroke-linecap="round" stroke-width="3" />
	<path id="Vector 4" d="M6.33289 19.0608L8.45422 21.1821" stroke="rgb(26,26,26)" stroke-linecap="round" stroke-width="3" />
	<path id="Vector 5" d="M9.51489 15.8787L12.6969 19.0606" stroke="rgb(26,26,26)" stroke-linecap="round" stroke-width="3" />
	<path id="Vector 6" d="M15.8785 9.51471L19.0605 12.6967" stroke="rgb(26,26,26)" stroke-linecap="round" stroke-width="3" />
</svg>
